rec1_004.mot
nRows=27
nColumns=19

name rec1_004.mot
datacolumns 19
datarows 27
range 0.0000000000 0.0520004207
endheader
time	ground_force_vx	ground_force_vy	ground_force_vz	ground_force_px	ground_force_py	ground_force_pz	1_ground_force_vx	1_ground_force_vy	1_ground_force_vz	1_ground_force_px	1_ground_force_py	1_ground_force_pz	ground_torque_x	ground_torque_y	ground_torque_z	1_ground_torque_x	1_ground_torque_y	1_ground_torque_z	
        0.0000000000	      -22.3148018151	      549.1140367692	      -44.7460879420	       -0.7000000000	       -0.0180000000	        0.5600000000	        0.4146012232	        4.3725159383	        0.7217244236	       -0.7000000000	       -0.0180000000	       -0.5600000000	      253.4861320309	       28.9604473843	      600.7797092073	       -0.7231189281	        0.4251048922	        1.4559211107	
        0.0019997766	      -21.0254429381	      544.7879809622	      -44.1091857115	       -0.7000000000	       -0.0180000000	        0.5600000000	        0.3988793705	        4.3904095013	        0.7251979477	       -0.7000000000	       -0.0180000000	       -0.5600000000	      251.4740748031	       28.1994661877	      594.7935566536	       -0.7136061996	        0.4212789365	        1.3356631879	
        0.0040000332	      -19.7993760084	      540.6311868191	      -43.5128479320	       -0.7000000000	       -0.0180000000	        0.5600000000	        0.3781645107	        4.3994413574	        0.7240329074	       -0.7000000000	       -0.0180000000	       -0.5600000000	      249.5369011617	       27.4988701999	      589.0220547452	       -0.7018119254	        0.4209346904	        1.2296308117	
        0.0059998496	      -18.6381850146	      536.6423132048	      -42.9588512203	       -0.7000000000	       -0.0180000000	        0.5600000000	        0.3536072298	        4.4024897756	        0.7191229452	       -0.7000000000	       -0.0180000000	       -0.5600000000	      247.6739395923	       26.8591784018	      583.4617333358	       -0.6886277868	        0.4237404976	        1.1453114400	
        0.0080001062	      -17.5423531150	      532.8204715897	      -42.4483037090	       -0.7000000000	       -0.0180000000	        0.5600000000	        0.3264815847	        4.4022543991	        0.7115362021	       -0.7000000000	       -0.0180000000	       -0.5600000000	      245.8848288022	       26.2793254262	      578.1094372637	       -0.6748634680	        0.4291287202	        1.0885192180	
        0.0099998430	      -16.5108756860	      529.1651609127	      -41.9813900349	       -0.7000000000	       -0.0180000000	        0.5600000000	        0.2976714271	        4.4005891201	        0.7024036959	       -0.7000000000	       -0.0180000000	       -0.5600000000	      244.1695005120	       25.7563219146	      572.9625522446	       -0.6611134964	        0.4362877545	        1.0625575872	
        0.0120001395	      -15.5411078904	      525.6761534796	      -41.5572271211	       -0.7000000000	       -0.0180000000	        0.5600000000	        0.2674865840	        4.3984390121	        0.6927431612	       -0.7000000000	       -0.0180000000	       -0.5600000000	      242.5281797784	       25.2854404691	      568.0188560759	       -0.6477956029	        0.4443169467	        1.0682604205	
        0.0139998361	      -14.6289392267	      522.3536796128	      -41.1738425879	       -0.7000000000	       -0.0180000000	        0.5600000000	        0.2358542263	        4.3961604561	        0.6831996137	       -0.7000000000	       -0.0180000000	       -0.5600000000	      240.9614628393	       24.8611616923	      563.2764119775	       -0.6351772373	        0.4525271036	        1.1046332008	
        0.0160001727	      -13.7692216915	      519.1987645680	      -40.8282563334	       -0.7000000000	       -0.0180000000	        0.5600000000	        0.2027177314	        4.3938806621	        0.6738898434	       -0.7000000000	       -0.0180000000	       -0.5600000000	      239.4704109795	       24.4776551934	      558.7337680731	       -0.6233834862	        0.4606792916	        1.1695339363	
        0.0179998691	      -12.9562598135	      516.2133240377	      -40.5166670390	       -0.7000000000	       -0.0180000000	        0.5600000000	        0.1684209289	        4.3917740068	        0.6645545489	       -0.7000000000	       -0.0180000000	       -0.5600000000	      238.0565695127	       24.1282559794	      554.3902710154	       -0.6125111531	        0.4689444258	        1.2600192966	
        0.0200003258	      -12.1841657182	      513.4000638040	      -40.2346766502	       -0.7000000000	       -0.0180000000	        0.5600000000	        0.1338885999	        4.3900889662	        0.6549469578	       -0.7000000000	       -0.0180000000	       -0.5600000000	      236.7219095316	       23.8051446097	      550.2463493843	       -0.6027414134	        0.4775961344	        1.3722814096	
        0.0219999424	      -11.4470038290	      510.7624082484	      -39.9774139614	       -0.7000000000	       -0.0180000000	        0.5600000000	        0.1004839578	        4.3887830949	        0.6451504708	       -0.7000000000	       -0.0180000000	       -0.5600000000	      235.4687195094	       23.4997754977	      546.3036995450	       -0.5942491612	        0.4866944568	        1.5013674166	
        0.0240002391	      -10.7387903252	      508.3043945278	      -39.7395774850	       -0.7000000000	       -0.0180000000	        0.5600000000	        0.0695794205	        4.3871910301	        0.6356899875	       -0.7000000000	       -0.0180000000	       -0.5600000000	      234.2994771943	       23.2038018734	      542.5651002859	       -0.5870655029	        0.4958754817	        1.6412389475	
        0.0259999756	      -10.0534648266	      506.0304176675	      -39.5155616883	       -0.7000000000	       -0.0180000000	        0.5600000000	        0.0420585255	        4.3842725104	        0.6274792943	       -0.7000000000	       -0.0180000000	       -0.5600000000	      233.2167578593	       22.9099190439	      539.0337539213	       -0.5811541611	        0.5042278832	        1.7855244174	
        0.0280003916	       -9.3848927472	      503.9448621669	      -39.2996895058	       -0.7000000000	       -0.0180000000	        0.5600000000	        0.0180120731	        4.3792135219	        0.6215776682	       -0.7000000000	       -0.0180000000	       -0.5600000000	      232.2231591900	       22.6117610600	      535.7125527799	       -0.5765577458	        0.5103830625	        1.9285253078	
        0.0300000473	       -8.7269246541	      502.0517366344	      -39.0864280454	       -0.7000000000	       -0.0180000000	        0.5600000000	       -0.0032263311	        4.3717781317	        0.6188525378	       -0.7000000000	       -0.0180000000	       -0.5600000000	      231.3211540730	       22.3033372247	      532.6037487797	       -0.5733822239	        0.5128285792	        2.0658174658	
        0.0320002631	       -8.0736076189	      500.3544216445	      -38.8705299739	       -0.7000000000	       -0.0180000000	        0.5600000000	       -0.0227436942	        4.3622621190	        0.6197772712	       -0.7000000000	       -0.0180000000	       -0.5600000000	      230.5128788407	       21.9789457080	      529.7090598064	       -0.5717181002	        0.5102587438	        2.1942199011	
        0.0340001189	       -7.4196072698	      498.8554738288	      -38.6471661319	       -0.7000000000	       -0.0180000000	        0.5600000000	       -0.0415716729	        4.3512557266	        0.6243863793	       -0.7000000000	       -0.0180000000	       -0.5600000000	      229.7999617626	       21.6333736597	      527.0298038632	       -0.5716313682	        0.5019016614	        2.3113019629	
        0.0360003346	       -6.7607183505	      497.5564040430	      -38.4121052012	       -0.7000000000	       -0.0180000000	        0.5600000000	       -0.0602836715	        4.3393313722	        0.6322668999	       -0.7000000000	       -0.0180000000	       -0.5600000000	      229.1834510765	       21.2625168927	      524.5667039047	       -0.5731417525	        0.4877975068	        2.4147489173	
        0.0380000303	       -6.0942356085	      496.4575151050	      -38.1618846013	       -0.7000000000	       -0.0180000000	        0.5600000000	       -0.0788690255	        4.3267796181	        0.6425321304	       -0.7000000000	       -0.0180000000	       -0.5600000000	      228.6637921995	       20.8642963732	      522.3194625551	       -0.5761461989	        0.4689181641	        2.5020014424	
        0.0400003662	       -5.4190033344	      495.5578492880	      -37.8939544479	       -0.7000000000	       -0.0180000000	        0.5600000000	       -0.0969387821	        4.3136850976	        0.6538071958	       -0.7000000000	       -0.0180000000	       -0.5600000000	      228.2407939998	       20.4386612582	      520.2864729462	       -0.5804225127	        0.4470689925	        2.5705418309	
        0.0420001020	       -4.7351218625	      494.8552626610	      -37.6068649923	       -0.7000000000	       -0.0180000000	        0.5600000000	       -0.1141027697	        4.3003162241	        0.6643221375	       -0.7000000000	       -0.0180000000	       -0.5600000000	      227.9136385668	       19.9867140898	      518.4649278710	       -0.5857511358	        0.4245632153	        2.6185637386	
        0.0440003576	       -4.0434812217	      494.3466599350	      -37.3004189348	       -0.7000000000	       -0.0180000000	        0.5600000000	       -0.1302857842	        4.2873112457	        0.6721643868	       -0.7000000000	       -0.0180000000	       -0.5600000000	      227.6809887213	       19.5100474122	      516.8512491202	       -0.5919780743	        0.4037288978	        2.6452608825	
        0.0460000934	       -3.3453558756	      494.0282950232	      -36.9756310655	       -0.7000000000	       -0.0180000000	        0.5600000000	       -0.1458393422	        4.2754210233	        0.6756326740	       -0.7000000000	       -0.0180000000	       -0.5600000000	      227.5411155358	       19.0107282313	      515.4414286137	       -0.5989480305	        0.3864182694	        2.6505575438	
        0.0480004691	       -2.6422294037	      493.8960399362	      -36.6345316326	       -0.7000000000	       -0.0180000000	        0.5600000000	       -0.1614243330	        4.2651637004	        0.6735946756	       -0.7000000000	       -0.0180000000	       -0.5600000000	      227.4919885363	       18.4919210481	      514.2310358985	       -0.6064740792	        0.3736821253	        2.6347368731	
        0.0500001648	       -1.9359195162	      493.9456061087	      -36.2799691098	       -0.7000000000	       -0.0180000000	        0.5600000000	       -0.1777196328	        4.2567119832	        0.6657261571	       -0.7000000000	       -0.0180000000	       -0.5600000000	      227.5313904848	       17.9582432457	      513.2151164127	       -0.6144121480	        0.3656814291	        2.5982512800	
        0.0520004207	       -1.2288635100	      494.1727100019	      -35.9154596650	       -0.7000000000	       -0.0180000000	        0.5600000000	       -0.1950808885	        4.2499348103	        0.6525208132	       -0.7000000000	       -0.0180000000	       -0.5600000000	      227.6570758337	       17.4150378519	      512.3883103131	       -0.6226919260	        0.3618153767	        2.5417404883	
